<svg xmlns="http://www.w3.org/2000/svg" viewBox="0 0 256 256" fill="currentColor" id="Chat-Thin--Streamline-Phosphor-Thin">
  <desc>
    Chat Thin Streamline Icon: https://streamlinehq.com
  </desc>
  <path d="M238.3872 12.5953H17.6131c-8.3135 0 -15.0528 6.7394 -15.0528 15.0528v200.7038c-0.0364 5.8624 3.3649 11.2024 8.693 13.6478 1.9942 0.9204 4.1635 1.3996 6.3598 1.405 3.5345 -0.003 6.9531 -1.2611 9.6463 -3.55l42.3987 -36.5908h168.7291c8.3134 0 15.0528 -6.7394 15.0528 -15.0528V27.6481c0 -8.3134 -6.7394 -15.0528 -15.0528 -15.0528Zm5.0176 175.6158c0 2.7711 -2.2465 5.0175 -5.0176 5.0176H67.789c-1.211 0.0078 -2.3783 0.4534 -3.2865 1.2544l-43.6782 37.7072c-2.9678 2.4721 -7.4988 0.8043 -8.1557 -3.002 -0.0477 -0.2762 -0.0722 -0.556 -0.0731 -0.8364V27.6481c0 -2.7711 2.2464 -5.0176 5.0176 -5.0176h220.7741c2.7712 0 5.0176 2.2465 5.0176 5.0176Z" stroke-width="1"></path>
</svg>