<svg xmlns="http://www.w3.org/2000/svg" viewBox="0 0 256 256" fill="#000000" id="House-Thin--Streamline-Phosphor-Thin">
  <desc>
    House Thin Streamline Icon: https://streamlinehq.com
  </desc>
  <path d="M243.6152 111.6941 139.0925 7.1714c-6.1272 -6.1485 -16.0839 -6.1485 -22.2111 0L12.3587 111.6941c-2.93 2.9471 -4.57 6.9368 -4.5598 11.0925v125.4273c0 2.8864 2.3397 5.2262 5.2261 5.2261h83.6182c2.8862 -0.0001 5.2261 -2.3399 5.2261 -5.2261v-78.3921h52.2614v78.3921c0 2.8864 2.3397 5.2262 5.2262 5.2261h83.6181c2.8863 -0.0001 5.2262 -2.3399 5.2262 -5.2261V122.7866c0.0033 -4.1594 -1.6464 -8.1497 -4.586 -11.0925Zm-5.8663 131.2936H164.583v-78.392c0 -2.8862 -2.3399 -5.226 -5.2262 -5.2262H96.6432c-2.8864 -0.0001 -5.2261 2.3398 -5.2261 5.2262v78.392H18.2512V122.7866c-0.0011 -1.3865 0.5488 -2.7166 1.5286 -3.6975L124.3025 14.5664c2.0414 -2.0437 5.3536 -2.0437 7.395 0l104.5228 104.5227c0.9798 0.9809 1.5297 2.311 1.5286 3.6975Z" stroke-width="1"></path>
</svg>