<svg xmlns="http://www.w3.org/2000/svg" viewBox="0 0 256 256" fill="#000000" id="Info-Thin--Streamline-Phosphor-Thin">
  <desc>
    Info Thin Streamline Icon: https://streamlinehq.com
  </desc>
  <path d="M143.0528 188.2112c0 2.7711 -2.2465 5.0175 -5.0176 5.0176 -8.3137 0.0004 -15.0528 -6.7391 -15.0528 -15.0528V128c0 -2.7711 -2.2465 -5.0175 -5.0176 -5.0176 -3.8626 -0.0002 -6.2767 -4.1816 -4.3453 -7.5266 0.8964 -1.5523 2.5528 -2.5086 4.3453 -2.5086 8.3132 0.0004 15.0528 6.7396 15.0528 15.0528v50.176c0 2.7712 2.2464 5.0177 5.0176 5.0176 2.7711 0.0001 5.0176 2.2465 5.0176 5.0176ZM122.9824 82.8416c7.7251 0 12.5533 -8.3627 8.6907 -15.0528 -3.8625 -6.6901 -13.5189 -6.6901 -17.3814 0 -0.8808 1.5255 -1.3445 3.2561 -1.3445 5.0176 0 5.5423 4.4929 10.0352 10.0352 10.0352ZM253.44 128c0 96.5638 -104.5333 156.9161 -188.16 108.6342 -83.6267 -48.2819 -83.6267 -168.9865 0 -217.2684C84.3493 8.3561 105.9807 2.56 128 2.56c69.2471 0.076 125.364 56.1929 125.44 125.44Zm-10.0352 0c0 -88.8387 -96.1707 -144.3628 -173.1072 -99.9435 -76.9365 44.4193 -76.9365 155.4677 0 199.887 17.5437 10.1289 37.4446 15.4613 57.7024 15.4613 63.7076 -0.0691 115.3357 -51.6972 115.4048 -115.4048Z" stroke-width="1"></path>
</svg>