<svg viewBox="0 0 24 24" fill="none" xmlns="http://www.w3.org/2000/svg" id="Redo--Streamline-Unicons-Thinline">
  <desc>
    Redo Streamline Icon: https://streamlinehq.com
  </desc>
  <path d="M21.5 11.5c-0.2761 0 -0.5 0.2239 -0.5 0.5 -0.0076 3.3253 -1.8441 6.3767 -4.7788 7.9404 -4.3969 2.3428 -9.86042 0.6776 -12.20313 -3.7192 -2.34278 -4.3969 -0.67762 -9.86042 3.71924 -12.20313C11.8784 1.81158 16.9634 3.16235 19.4985 7H16.5c-0.2761 0 -0.5 0.22388 -0.5 0.5 0 0.27612 0.2239 0.5 0.5 0.5h4c-0.0002 0 0.0002 0 0 0 0.2759 -0.00018 0.5002 -0.224 0.5 -0.5v-4c0 -0.27612 -0.2239 -0.5 -0.5 -0.5s-0.5 0.22388 -0.5 0.5v2.49719C18.1317 3.51105 15.1926 2.00397 12.0253 2 6.50244 1.99304 2.01965 6.46454 2.01263 11.9874 2.00568 17.5102 6.47717 21.993 12 22c5.5201 -0.0065 9.9935 -4.4799 10 -10 0 -0.2761 -0.2239 -0.5 -0.5 -0.5Z" fill="currentColor" stroke-width="1"></path>
</svg>