<svg viewBox="0 0 24 24" xmlns="http://www.w3.org/2000/svg" id="Show-Theater-Mask-Happy--Streamline-Ultimate">
  <desc>
    Show Theater Mask Happy Streamline Icon: https://streamlinehq.com
  </desc>
  <path d="M22.5 12V1.506a0.994 0.994 0 0 0 -1.324 -0.945c-4.029 1.5 -14.323 1.5 -18.352 0a0.994 0.994 0 0 0 -1.324 0.946V12c0 6.35 8.5 11.5 10.5 11.5S22.5 18.35 22.5 12" fill="none" stroke="currentColor" stroke-linecap="round" stroke-linejoin="round" stroke-width="1"></path>
  <path d="M14.5 8.5a2 2 0 1 1 4 0" fill="none" stroke="currentColor" stroke-linecap="round" stroke-linejoin="round" stroke-width="1"></path>
  <path d="M5.5 8.5a2 2 0 0 1 4 0" fill="none" stroke="currentColor" stroke-linecap="round" stroke-linejoin="round" stroke-width="1"></path>
  <path d="M8 13.5a4 4 0 1 0 8 0" fill="none" stroke="currentColor" stroke-linecap="round" stroke-linejoin="round" stroke-width="1"></path>
</svg>